<mxfile host="app.diagrams.net" modified="2024-05-17T00:33:24.608Z" agent="Mozilla/5.0 (Windows NT 10.0; Win64; x64) AppleWebKit/537.36 (KHTML, like Gecko) Chrome/124.0.0.0 Safari/537.36 Edg/124.0.0.0" version="24.4.0" etag="vE7KuzyiQtrvP7p39uz0" type="github">
  <diagram name="第 1 页" id="H33LpakiPtPcnvoR_eJM">
    <mxGraphModel>
      <root>
        <mxCell id="0" />
        <mxCell id="1" parent="0" />
      </root>
    </mxGraphModel>
  </diagram>
</mxfile>
